# xmcd
#
# Track frame offsets:
#	150
#	23150
#	41650
#	60711
#	77446
#	99974
#	117696
#	146396
#	160813
#	178808
#	195835
#	216225
#
# Disc length: 3075 seconds
#
# Revision: 0
# Processed by: cddbd v1.5.1PL0 Copyright (c) Steve Scherf et al.
# Submitted via: dBpowerAMP V4.0
#
DISCID=9c0c010c
DTITLE=Marc Broussard - Carencro
DYEAR=2004
DGENRE=Soul
TTITLE0=Home
TTITLE1=Rocksteady
TTITLE2=Beauty of Who You Are
TTITLE3=Save Me
TTITLE4=Come Around
TTITLE5=Where You Are
TTITLE6=Lonely Night in Georgia
TTITLE7=Saturday
TTITLE8=Wanderer
TTITLE9=Hope For Me Yet
TTITLE10=Let Me Leave
TTITLE11=My Love Still Remains (bonus track)
EXTD=
EXTT0=
EXTT1=
EXTT2=
EXTT3=
EXTT4=
EXTT5=
EXTT6=
EXTT7=
EXTT8=
EXTT9=
EXTT10=
EXTT11=
PLAYORDER=
